<svg xmlns="http://www.w3.org/2000/svg" height="24" viewBox="0 -960 960 960" width="24" fill="#d4af37"><path d="M680-480 575-585l57-57 168 168-168 168-57-57 105-105ZM360-600q-50 0-85-35t-35-85q0-50 35-85t85-35q50 0 85 35t35 85q0 17-5 33t-15 31l111 111 57-57 56 56-113 113-58-58-15 15q-33-31-77-44t-90-11q-34 9-63 27t-51 43l-57-57q29-30 66-51t79-30l-45-45q-14 10-30 15t-33 5ZM240-240q-50 0-85-35t-35-85q0-50 35-85t85-35q50 0 85 35t35 85q0 50-35 85t-85 35Zm0-80q17 0 28.5-11.5T280-360q0-17-11.5-28.5T240-400q-17 0-28.5 11.5T200-360q0 17 11.5 28.5T240-320Zm120-400q17 0 28.5-11.5T400-760q0-17-11.5-28.5T360-800q-17 0-28.5 11.5T320-760q0 17 11.5 28.5T360-720Z"/></svg>
